# xmcd CD database file
#
# Track frame offsets:
#	150
#	23955
#	48891
#	71226
#	95052
#	117948
#	138816
#	161700
#	184143
#	204024
#	224826
#	242168
#
# Disc length: 3615 seconds
#
# Revision: 0
# Processed by: cddbd v1.5.1PL0 Copyright (c) Steve Scherf et al.
# Submitted via: CDex 1.51
#
DISCID=b10e1d0c
DTITLE=The Organ Trio - Gig Bag
DYEAR=2004
DGENRE=Jazz
TTITLE0=Strayhorn
TTITLE1=The Duke
TTITLE2=Gig Bag
TTITLE3=El Jo
TTITLE4=Nessun Dorma
TTITLE5=Don't Ask
TTITLE6=Slow Flow
TTITLE7=Smoke Gets in Your Eyes
TTITLE8=Lullaby
TTITLE9=Dilly Dally
TTITLE10=Theme from Godfather II
TTITLE11=Blueberry Hill
EXTD=YEAR: 2004
EXTT0=
EXTT1=
EXTT2=
EXTT3=
EXTT4=
EXTT5=
EXTT6=
EXTT7=
EXTT8=
EXTT9=
EXTT10=
EXTT11=
PLAYORDER=
